<?xml version="1.0" encoding="utf-8"?>
<!-- Generator: Adobe Illustrator 19.0.0, SVG Export Plug-In . SVG Version: 6.00 Build 0)  -->
<svg version="1.1" id="Camada_1" xmlns="http://www.w3.org/2000/svg" xmlns:xlink="http://www.w3.org/1999/xlink" x="0px" y="0px"
	 viewBox="0 0 300 300" style="enable-background:new 0 0 300 300;" xml:space="preserve">
<style type="text/css">
	.st0{fill:#070707;}
</style>
<path id="XMLID_25_" class="st0" d="M270.6,147.2c-2.1-1.3-4.6-1.5-6.8-2.2c-8.4-2.2-16.9-4.4-25.3-6.6c-4.8-2.9-10.4-2.9-15.6-4.5
	c-0.6-0.9,0.5-1.1,0.7-1.6c-9.4-3.9-19.4-5.5-29.1-7.8c-0.9-0.2-2.3-0.8-2.8,1c-1.4,6,0.2,8.8,6.3,10.8c1.8,0.6,3.6,1,5.4,1.5
	c3.9,1.1,7.8,2.3,11.6,3.4c-4.9,0.8-9.7,0.8-14.5,0.8c-22.4,0.3-44.9,2.2-67.3,1.5c-1.5-0.6-3.1-0.3-4.7-0.3c-17.9,0-35.8,0-53.6,0
	c-1.9,0-3.8,0-5.6-0.3c-6.2-1-12.3-0.7-18.5-0.3c-0.6,0.3-1.1,0.7-1.5,1.1c-3.1,0-6.1,0-9.2,0c-1.7,0-3.4-0.1-5.1-0.1
	c-3.3-0.3-6.3,0.2-8.7,2.6c0.1,1.8-2,3.9,0.7,5.3c3.2-3.6,4.2-3.6,6.1,0.4c-0.7,1.4-1.9,2.3-3.4,2.8c-0.2,0.1-0.5,0.2-0.7,0.2
	c-1.1,1-0.4,1.8,0.4,2.6c0.7,0.4,1.3,0.8,2.1,0.8c1.8-0.2,3.5-0.7,5.1-1.4c0.6,0,1.2,0,1.7,0c2.3-0.1,4.6-0.3,6.9-0.4
	c0.3,0.3,0.6,0.6,0.9,0.9c0.7,0.1,1.3-0.2,1.8-0.6c1.1-0.1,2.3-0.2,3.4-0.3c0.3,0,0.6,0,1,0c0.6,0,1.1,0,1.7,0c3.4,0,6.9,0,10.3,0
	c0-0.1,0.1-0.2,0.1-0.3c2.5-0.3,5.2,0.5,7.1-2c0.2-0.1,0.5-0.2,0.7-0.3c1.7-0.2,3.6-0.1,5.4-1.9c-3.6-1-6.7-0.4-9.8-0.4
	c-0.3-0.1-0.5-0.1-0.8-0.2c-0.3-0.1-0.5-0.1-0.8-0.2c0.2-0.2,0.5-0.4,0.7-0.6c2.3-0.2,4.6-0.5,6.9-0.7c42.7-2.4,85.3-4.7,128.1-4.1
	c3.1,0,6.2,0,9.4,0c0,0.5,0,1,0,1.6c-17.1,0.6-34.2,1.1-51.3,1.7c-2,0-4.1,0-6.1,0c-0.4,0.3-0.8,0.3-1.2,0.3
	c0.4-0.1,0.8-0.2,1.2-0.3c-7.3-0.4-14.6,0.1-21.8,0.8c-3.7,0-7.5,0-11.2,0.1c-3.9,0-7.8-0.4-11.5,1.1c4.1,0.8,8.2,0.8,12.3,0.3
	c3.5-0.2,7-0.5,10.4-0.7c5.6,0,11.1,0,16.7,0c1.9,0.1,3.8,0.2,5.6,0.2c8.2,0,16.5-0.4,24.7-0.1c5.9,0.2,11.8,1.1,17.7,0.1
	c0,0,0,0,0,0c3.3,0,6.5,0,10.5,0c-1.9,1.2-3.9,0.2-5.1,2.5c8.8,0,17.2,0,25.6,0c0.1,0,0.1,0.1,0.2,0.3c0.1,0.2,0,0.4-0.3,0.5
	c-6.6,1.7-13.2,3.3-19.7,5.1c-4.9,1.3-9.7,2.7-14.5,4.3c-3.2,1-3.4,3.6-2.8,6.4c0.4,1.7,1.3,2.2,3.1,2c1.3-0.2,3.2-2.1,4,0.2
	c0.7,2-2.2,1.5-2.8,2.9c-0.1,0.2,0,0.5,0.1,1.2c10.4-1.4,19.9-5.9,29.9-8.1c0.7-0.8,1.1-1.9,1.7-2.7c0-0.2,0.1-0.5,0.2-0.7
	c-0.3-0.8-1.1-0.9-1.9-1.1c-1.4,0-2.9,0-5.1,0c3.1-1.3,5.4-2.3,7.8-3.4c5.1-1.2,10.1-2.9,14.9-5.1c6-1.3,11.5-4.1,18-6.5
	c-7.5-2.1-14.6-2.4-20.7-5.9c-0.5-0.8-1.3-1.2-2.2-1.2c-0.5,0-0.9-0.1-1.4-0.1c0.6,0,1.3-0.3,1.9-0.8c1.2,0.4,2.4,0.9,3.6,1.3
	c7.2,1.4,14.3,2.9,21.5,4.3c2.2,1.1,4.6,1.5,7,1.7c0.6,1.7-1.6,0.9-1.8,1.9c-1.3-0.1-2.4,0.2-3.5,1.1c-3.4,0-6.3,1.8-9.5,2.6l0,0
	c-0.6,0.3-1.7,0.6-1.7,0.9c0,1.1,1,0.7,1.6,0.6c0.7,0,1.3-0.4,2-0.7c2.6-0.6,5.5-0.7,7.7-2.6c0,0,0,0,0,0c1.3,0.2,2.3-0.5,3.4-1
	c2-0.3,3.8-1,5.6-2.1C273.2,147.4,272.1,146.8,270.6,147.2z M230.3,139.7c0.8,0.2,1.7,0.4,2.5,0.6C232,140.2,231.1,140,230.3,139.7z
	"/>
</svg>
